<svg version="1.1" viewBox="0 0 26.667 29.333" xmlns="http://www.w3.org/2000/svg"><g transform="scale(1.3333)"><g transform="translate(12.75 .75)"><path d="m3 0c0.82843 0 1.5355 0.29289 2.1213 0.87868 0.58579 0.58579 0.87868 1.2929 0.87868 2.1213-5e-7 0.82843-0.29289 1.5355-0.87868 2.1213-0.58579 0.58579-1.2929 0.87868-2.1213 0.87868-0.82843-5e-7 -1.5355-0.29289-2.1213-0.87868-0.58579-0.58579-0.87868-1.2929-0.87868-2.1213 0-0.82843 0.29289-1.5355 0.87868-2.1213 0.58579-0.58579 1.2929-0.87868 2.1213-0.87868z" fill="none" stroke="#000" stroke-width="1.5" stroke-miterlimit="10"/></g><g transform="translate(.75 7.75)"><path d="m3 0c0.82843 0 1.5355 0.29289 2.1213 0.87868 0.58579 0.58579 0.87868 1.2929 0.87868 2.1213-5e-7 0.82843-0.29289 1.5355-0.87868 2.1213-0.58579 0.58579-1.2929 0.87868-2.1213 0.87868-0.82843-5e-7 -1.5355-0.29289-2.1213-0.87868-0.58579-0.58579-0.87868-1.2929-0.87868-2.1213 0-0.82843 0.29289-1.5355 0.87868-2.1213 0.58579-0.58579 1.2929-0.87868 2.1213-0.87868z" fill="none" stroke="#000" stroke-width="1.5" stroke-miterlimit="10"/></g><g transform="translate(12.75,14.75)"><path d="m3 0c0.82843 0 1.5355 0.29289 2.1213 0.87868 0.58579 0.58579 0.87868 1.2929 0.87868 2.1213-5e-7 0.82843-0.29289 1.5355-0.87868 2.1213-0.58579 0.58579-1.2929 0.87868-2.1213 0.87868-0.82843-5e-7 -1.5355-0.29289-2.1213-0.87868-0.58579-0.58579-0.87868-1.2929-0.87868-2.1213 0-0.82843 0.29289-1.5355 0.87868-2.1213 0.58579-0.58579 1.2929-0.87868 2.1213-0.87868z" fill="none" stroke="#000" stroke-width="1.5" stroke-miterlimit="10"/></g><g transform="translate(6.3398 12.26)"><path d="m0 0 6.83 3.98" fill="none" stroke="#000" stroke-width="1.5" stroke-miterlimit="10"/></g><g transform="translate(6.3398 5.2598)"><path d="m6.82 0-6.82 3.98" fill="none" stroke="#000" stroke-width="1.5" stroke-miterlimit="10"/></g></g></svg>
